<svg width="21" height="18" viewBox="0 0 21 18" fill="none" xmlns="http://www.w3.org/2000/svg">
<g id="Vector">
<path id="Vector_2" d="M11.0998 2.69047C12.0049 1.48473 13.4706 0.750121 15.1871 0.75C16.5293 0.751624 17.8161 1.28566 18.7652 2.23503L19.2956 1.70476L18.7652 2.23503C19.7145 3.18451 20.2485 4.47188 20.25 5.81472C20.2496 8.74555 18.0511 11.5204 15.5889 13.6772C13.1659 15.7997 10.6862 17.1514 10.5043 17.2477L10.5043 17.2477L10.5 17.25L10.4957 17.2477C10.3138 17.1514 7.8341 15.7997 5.41114 13.6772C2.94878 11.5203 0.750211 8.74528 0.75 5.81429C0.751624 4.47161 1.2856 3.18441 2.23475 2.23503C3.1839 1.28566 4.47072 0.751624 5.81292 0.75C7.52943 0.750121 8.9951 1.48473 9.90019 2.69047L10.5 3.48952L11.0998 2.69047ZM10.8553 17.9105C10.7461 17.9692 10.624 18 10.5 18C10.376 18 10.2539 17.9692 10.1447 17.9105C9.73031 17.691 0 12.3779 0 5.81387C0.00173694 4.27247 0.614681 2.7947 1.70436 1.70476C2.79404 0.614826 4.27146 0.00173735 5.8125 0L10.8553 17.9105Z" stroke="#E9EBF0" stroke-width="1.5"/>
</g>
</svg>
