<svg width="14" height="18" viewBox="0 0 14 18" fill="none" xmlns="http://www.w3.org/2000/svg">
<path id="Vector" d="M2.05034 2.80927C3.36309 1.45072 5.14355 0.6875 7.00005 0.6875C8.85655 0.6875 10.637 1.45072 11.9498 2.80927C13.2625 4.16782 14 6.01041 14 7.93169C14 9.85297 13.2625 11.6956 11.9498 13.0541L10.9955 14.0308C10.2924 14.7447 9.37964 15.6632 8.25738 16.7863C7.92007 17.1238 7.46924 17.3125 7.00005 17.3125C6.53086 17.3125 6.08003 17.1238 5.74273 16.7863L2.93626 13.9609C2.58307 13.6026 2.28776 13.3004 2.05034 13.0541C1.40031 12.3814 0.884667 11.5829 0.532868 10.7039C0.181069 9.82503 0 8.88302 0 7.93169C0 6.98036 0.181069 6.03835 0.532868 5.15944C0.884667 4.28053 1.40031 3.48194 2.05034 2.80927ZM11.0968 3.69116C10.5587 3.13434 9.9199 2.69266 9.21686 2.39133C8.51382 2.09 7.76031 1.93493 6.99937 1.93497C6.23842 1.93501 5.48492 2.09015 4.78191 2.39155C4.0789 2.69295 3.44014 3.1347 2.90209 3.69157C2.36404 4.24845 1.93725 4.90954 1.64608 5.63712C1.35492 6.36469 1.20507 7.14448 1.20511 7.93198C1.20515 8.71949 1.35506 9.49927 1.6463 10.2268C1.93754 10.9544 2.36439 11.6154 2.90249 12.1722L4.09872 13.3935C4.75686 14.0597 5.58436 14.8916 6.58121 15.8894C6.69362 16.0018 6.84378 16.0646 7.00005 16.0646C7.15632 16.0646 7.30648 16.0018 7.41889 15.8894L10.1482 13.144C10.526 12.7607 10.8422 12.4368 11.0968 12.1722C12.1833 11.0478 12.7937 9.52271 12.7937 7.93252C12.7937 6.34234 12.1833 4.81728 11.0968 3.69282M7.00005 5.66375C7.31698 5.66375 7.6308 5.72835 7.9236 5.85387C8.2164 5.97938 8.48245 6.16335 8.70655 6.39527C8.93065 6.62719 9.10842 6.90252 9.2297 7.20554C9.35098 7.50856 9.41341 7.83333 9.41341 8.16131C9.41341 8.4893 9.35098 8.81407 9.2297 9.11709C9.10842 9.42011 8.93065 9.69544 8.70655 9.92736C8.48245 10.1593 8.2164 10.3432 7.9236 10.4688C7.6308 10.5943 7.31698 10.6589 7.00005 10.6589C6.36772 10.6469 5.76519 10.3786 5.32209 9.91158C4.879 9.44458 4.63074 8.81623 4.63074 8.16173C4.63074 7.50723 4.879 6.87888 5.32209 6.41188C5.76519 5.94487 6.36772 5.67653 7.00005 5.66458M7.00005 6.91253C6.67981 6.91253 6.37268 7.04419 6.14623 7.27853C5.91979 7.51288 5.79257 7.83073 5.79257 8.16215C5.79257 8.49356 5.91979 8.81141 6.14623 9.04576C6.37268 9.2801 6.67981 9.41176 7.00005 9.41176C7.3148 9.40335 7.61392 9.26805 7.83366 9.0347C8.0534 8.80134 8.17638 8.4884 8.17638 8.16256C8.17638 7.83673 8.0534 7.52378 7.83366 7.29042C7.61392 7.05707 7.3148 6.92177 7.00005 6.91336" fill="#E9EBF0"/>
</svg>
