<svg width="14" height="14" viewBox="0 0 14 14" fill="none" xmlns="http://www.w3.org/2000/svg">
<g id="Group">
<path id="Vector (Stroke)" fill-rule="evenodd" clip-rule="evenodd" d="M0 7C0 3.13391 3.13391 0 7 0C10.8661 0 14 3.13391 14 7C14 10.8661 10.8661 14 7 14C3.13391 14 0 10.8661 0 7ZM7 1.2C3.79665 1.2 1.2 3.79665 1.2 7C1.2 10.2033 3.79665 12.8 7 12.8C10.2033 12.8 12.8 10.2033 12.8 7C12.8 3.79665 10.2033 1.2 7 1.2Z" fill="#E9EBF0"/>
<path id="Vector (Stroke)_2" fill-rule="evenodd" clip-rule="evenodd" d="M7.00283 2.55975C7.3342 2.55975 7.60283 2.82838 7.60283 3.15975V6.75445L10.1404 9.29231C10.3747 9.52664 10.3747 9.90654 10.1404 10.1408C9.90602 10.3751 9.52612 10.3751 9.29182 10.1408L6.57854 7.42719C6.46604 7.31467 6.40283 7.16207 6.40283 7.00295V3.15975C6.40283 2.82838 6.67146 2.55975 7.00283 2.55975Z" fill="#E9EBF0"/>
</g>
</svg>
